<svg width="85" height="18" viewBox="0 0 85 18" fill="none" xmlns="http://www.w3.org/2000/svg">
<g clip-path="url(#clip0_2521_3477)">
<mask id="path-3-inside-1_2521_3477" fill="white">
<path d="M0 0H85V10H0V0Z"/>
</mask>
<path d="M85 10V10.5H85.5V10H85ZM0 10H-0.5V10.5H0V10ZM85 0H84.5V10H85H85.5V0H85ZM85 10V9.5H0V10V10.5H85V10ZM0 10H0.5V0H0H-0.5V10H0Z" fill="#692E0E" mask="url(#path-3-inside-1_2521_3477)"/>
<rect x="2.75" y="2.25" width="5.5" height="5.5" rx="2.75" fill="#CCA28B" fill-opacity="0.9"/>
<rect x="2.75" y="2.25" width="5.5" height="5.5" rx="2.75" stroke="#692E0E" stroke-width="0.5"/>
<line x1="10.75" y1="4.75" x2="15.25" y2="4.75" stroke="#692E0E" stroke-width="0.5" stroke-linecap="round"/>
<line x1="18.75" y1="4.75" x2="23.25" y2="4.75" stroke="#692E0E" stroke-width="0.5" stroke-linecap="round"/>
<line x1="26.75" y1="4.75" x2="31.25" y2="4.75" stroke="#692E0E" stroke-width="0.5" stroke-linecap="round"/>
<line x1="34.75" y1="4.75" x2="39.25" y2="4.75" stroke="#692E0E" stroke-width="0.5" stroke-linecap="round"/>
<rect x="56.7" y="2.7" width="10.6" height="4.6" rx="1.3" stroke="#692E0E" stroke-width="0.4"/>
<rect x="71.7" y="2.7" width="10.6" height="4.6" rx="1.3" fill="#CCA28B" fill-opacity="0.9"/>
<rect x="71.7" y="2.7" width="10.6" height="4.6" rx="1.3" stroke="#692E0E" stroke-width="0.4"/>
</g>
<rect x="0.25" y="0.25" width="84.5" height="17.5" rx="1.75" stroke="#692E0E" stroke-width="0.5"/>
<defs>
<clipPath id="clip0_2521_3477">
<rect width="85" height="18" rx="2" fill="white"/>
</clipPath>
</defs>
</svg>
